<?xml version="1.0" encoding="UTF-8"?>
<svg id="Layer_1" data-name="Layer 1" xmlns="http://www.w3.org/2000/svg" xmlns:xlink="http://www.w3.org/1999/xlink" viewBox="0 0 530.18 594">
  <defs>
    <style>
      .cls-1 {
        fill: none;
      }

      .cls-2 {
        opacity: .2;
      }

      .cls-2, .cls-3 {
        fill-rule: evenodd;
      }

      .cls-2, .cls-3, .cls-4 {
        fill: #fdbe61;
      }

      .cls-4 {
        opacity: .25;
      }

      .cls-5 {
        clip-path: url(#clippath);
      }
    </style>
    <clipPath id="clippath">
      <rect class="cls-1" x=".05" width="530.13" height="594"/>
    </clipPath>
  </defs>
  <g class="cls-5">
    <path class="cls-3" d="M391.96,339.24c30.02,0,57.23,12.22,76.97,31.87,19.74,19.73,31.86,46.86,31.86,76.99,0,21.93-6.56,42.44-17.74,59.53l47.1,51.32-32.48,29.69-45.41-49.97c-17.24,11.5-38,18.22-60.28,18.22-30.01,0-57.23-12.23-76.92-31.87-19.74-19.74-31.86-46.86-31.86-76.92s12.22-57.26,31.86-76.99c19.64-19.74,46.8-31.87,76.89-31.87h0ZM27.75,195.73v225.57c0,1.3.47,2.5,1.3,3.31.8.82,1.95,1.35,3.3,1.35h203.74c14.02,1.42,14.47,25.73,0,27.82H105.69v51.74c0,1.35.47,2.5,1.32,3.3.82.82,1.97,1.3,3.32,1.3h125.79c5.55.63,9.04,7.8,8.89,14.77-.13,5.79-2.78,11.44-8.89,13.08h-125.65c-8.93,0-17.16-3.65-22.9-9.58-5.94-5.94-9.58-14-9.58-22.9v-51.75h-45.51c-8.9,0-17.16-3.64-22.9-9.58-5.94-5.94-9.58-13.97-9.58-22.9V32.48C.05,23.57,3.69,15.32,9.63,9.58,15.57,3.64,23.63,0,32.54,0h341.63c8.91,0,17.17,3.64,22.9,9.53,5.94,5.94,9.53,14.05,9.53,22.9v51.72h45.51c8.91,0,17.14,3.64,22.9,9.55,5.94,5.94,9.58,14.02,9.58,22.88v177.39c-.97,10.16-25.92,10.31-28.01,0V116.69c0-1.35-.5-2.5-1.3-3.3-.82-.82-1.97-1.35-3.31-1.35h-45.51v181.98c-2.45,9.21-23.18,10.58-27.82,0v-98.3H27.75ZM27.75,170.11h350.89V32.48c0-1.35-.47-2.5-1.35-3.32-.82-.8-1.97-1.32-3.29-1.32H32.34c-1.35,0-2.5.48-3.3,1.32-.82.82-1.3,1.97-1.3,3.32v137.62ZM186.68,103.19h22.63c1.19,0,1.99.8,1.99,2v50.12c0,1.2-.8,2-1.99,2h-22.63c-1.2,0-2-.8-2-2v-50.12c0-.75.8-2,2-2h0ZM298.1,103.19h22.6c1.2,0,2.02.8,2.02,2v50.12c0,1.2-.82,2-2.02,2h-22.6c-1.19,0-1.99-.8-1.99-2v-50.12c0-.75.8-2,1.99-2h0ZM242.38,60.78h22.63c1.23,0,2,.82,2,2.02v92.89c0,1.19-.8,2.02-2,2.02h-22.63c-1.19,0-1.99-.82-1.99-2.02V62.8c0-1.19.8-2.02,1.99-2.02h0ZM75.3,76.12h22.63c1.2,0,2,.82,2,2.02v77.55c0,1.19-.8,2.02-2,2.02h-22.63c-1.19,0-1.99-.82-1.99-2.02v-77.52c-.4-1.22.8-2.04,1.99-2.04h0ZM130.96,60.78h22.63c1.2,0,2,.82,2,2.02v92.89c0,1.19-.8,2.02-2,2.02h-22.63c-1.19,0-1.99-.82-1.99-2.02V62.8c0-1.19.8-2.02,1.99-2.02h0ZM204.54,321.83l63,1.1c0,22.6-11.1,43.34-29.64,55.93l-33.35-57.03ZM201.1,302.56l-.73-73.4v-4.84l4.84.4c5.94.37,11.9,1.47,17.44,2.96,5.56,1.48,10.72,3.7,15.97,6.27,25.57,13.37,43.34,40.04,44.83,70.43l.38,4.84h-4.84l-73-2.22h-4.07l-.82-4.44ZM209.25,233.58l.7,64.52,64.15,1.87c-2.57-25.2-18.14-47.08-39.64-58.53-4.46-2.25-9.25-4.12-14.1-5.61-4.07-.77-7.43-1.48-11.1-2.25h0ZM183.43,315.26l35.98,62.27c-11.13,6.32-23.33,9.61-35.98,9.61-39.67,0-71.91-32.24-71.91-71.93s30.42-70.44,68.94-71.91l2.97,71.95ZM449.82,390.16c-14.79-14.79-35.26-24-57.86-24s-43.09,9.21-57.88,24c-14.8,14.82-24,35.28-24,57.88s9.2,43.07,24,57.86c14.79,14.79,35.25,24,57.88,24s43.07-9.21,57.86-24c14.79-14.79,24-35.3,24-57.86s-9.21-43.06-24-57.88h0ZM449.82,390.16"/>
  </g>
  <path class="cls-3" d="M210.92,537.97v-27.85h67.83s3.32.05,6.01,3.94c1.48,2.14,2.87,5.23,2.87,9.98.02,12.32-8.89,13.92-8.89,13.92h-67.83Z"/>
  <path class="cls-3" d="M185.05,453.78v-27.82h67.83s3.32.05,6.01,3.94c1.48,2.14,2.87,5.22,2.87,9.97.02,12.31-8.89,13.91-8.89,13.91h-67.83Z"/>
  <path class="cls-3" d="M378.63,242.63h27.82v67.83s-.05,3.32-3.94,6.01c-2.14,1.48-5.22,2.87-9.97,2.87-12.31.02-13.91-8.89-13.91-8.89v-67.83Z"/>
  <path class="cls-3" d="M456.71,269.73h27.87v67.83s-.05,3.32-3.94,6.01c-2.14,1.48-5.23,2.87-9.99,2.87-12.33.02-13.93-8.89-13.93-8.89v-67.83Z"/>
  <path class="cls-2" d="M456.71,116.41v243.25c-18.05-13.23-40.31-21.04-64.4-21.04-60.26,0-109.1,48.84-109.1,109.09,0,23.21,7.24,44.73,19.61,62.41h-23.51c-.04-.07-.07-.13-.11-.2H110.17c-.29,0-1.83-.03-3.08-1.27-.78-.79-1.27-1.88-1.27-3.08v-79.75H32.82c-2.8,0-5.07-2.27-5.07-5.07V32.91c0-2.8,2.27-5.07,5.07-5.07h340.75c2.8,0,5.07,2.27,5.07,5.07v79.15h73.72c2.4,0,4.35,1.94,4.35,4.35Z"/>
  <circle class="cls-4" cx="391.81" cy="447.94" r="81.78"/>
</svg>