<?xml version="1.0" encoding="UTF-8"?>
<svg id="Layer_1" data-name="Layer 1" xmlns="http://www.w3.org/2000/svg" viewBox="0 0 584.68 457.57">
  <defs>
    <style>
      .cls-1 {
        opacity: .5;
      }

      .cls-1, .cls-2 {
        fill: #fdbe61;
      }

      .cls-3 {
        fill: #fdbe60;
      }

      .cls-2 {
        opacity: .12;
      }
    </style>
  </defs>
  <g>
    <path class="cls-3" d="M445.35,430.57h-65.4c-2.36,0-4.29-1.93-4.29-4.28v-15.93c0-2.36-1.93-4.29-4.29-4.29h-30.3v-22.85h-37.47v22.85h-23.74c-2.37,0-4.3,1.93-4.3,4.29v15.93c0,2.35-1.93,4.28-4.29,4.28h-49.16c-2.36,0-4.29,1.93-4.29,4.29v18.42c0,2.36,1.93,4.29,4.29,4.29h223.23c2.36,0,4.29-1.93,4.29-4.29v-18.42c.01-2.35-1.92-4.29-4.28-4.29Z"/>
    <g>
      <circle class="cls-1" cx="321.88" cy="344.52" r="13.27"/>
      <path class="cls-2" d="M562.39,22.29v294.68H217.93v-180.15c0-10.5-8.51-19-18.99-19h-117.54V22.29h481Z"/>
      <path class="cls-3" d="M555.23,0H88.54c-16.24,0-29.45,13.21-29.45,29.45v76.82c0,10.16-.75,11.59,6.06,11.59,3.62,0,16.23,0,16.23,0V29.45c0-3.88,3.28-7.16,7.16-7.16h466.69c3.88,0,7.16,3.28,7.16,7.16v287.52H217.82s.12,42.11.12,51.1c0,15.14,12.11,15.14,12.11,15.14h325.18c16.23,0,29.45-13.21,29.45-29.44V29.45c0-16.24-13.21-29.45-29.45-29.45ZM321.89,357.79c-7.33,0-13.27-5.94-13.27-13.27s5.94-13.27,13.27-13.27,13.27,5.95,13.27,13.27-5.94,13.27-13.27,13.27h0ZM321.89,357.79"/>
    </g>
  </g>
  <g>
    <ellipse class="cls-1" cx="111.13" cy="431.77" rx="10.6" ry="10.95"/>
    <rect class="cls-2" x="17.6" y="148.78" width="187.19" height="266.89" rx="4" ry="4"/>
    <rect class="cls-1" x="85.09" y="128.01" width="52.62" height="7.97" rx="3.58" ry="3.58"/>
    <path class="cls-3" d="M202.33,106.43H20.47c-11.29,0-20.47,9.48-20.47,21.16v308.83c0,11.66,9.18,21.15,20.47,21.15h181.86c11.29,0,20.48-9.48,20.48-21.15V127.59c0-11.67-9.19-21.16-20.48-21.16ZM88.97,128.01h44.87c2.14,0,3.88,1.79,3.88,4.01s-1.73,4.01-3.88,4.01h-44.87c-2.14,0-3.88-1.79-3.88-4.01s1.73-4.01,3.88-4.01ZM111.13,442.72c-5.86,0-10.6-4.91-10.6-10.95s4.74-10.95,10.6-10.95,10.59,4.91,10.59,10.95-4.74,10.95-10.59,10.95ZM205.22,410.54c0,2.82-2.19,5.13-4.86,5.13H22.45c-2.67,0-4.85-2.31-4.85-5.13V153.91c0-2.82,2.18-5.13,4.85-5.13h177.91c2.67,0,4.86,2.31,4.86,5.13v256.63Z"/>
  </g>
</svg>