<?xml version="1.0" encoding="UTF-8"?>
<svg xmlns="http://www.w3.org/2000/svg" viewBox="0 0 600 600">
  <defs>
    <style>
      .cls-1 {
        opacity: .18;
      }

      .cls-1, .cls-2 {
        fill: #ffbf60;
      }

      .cls-3 {
        fill: none;
        opacity: 0;
      }

      .cls-2 {
        opacity: .4;
      }

      .cls-4 {
        fill: #ffbf61;
      }
    </style>
  </defs>
  <g id="background">
    <rect class="cls-3" width="600" height="600"/>
  </g>
  <g id="objects">
    <g>
      <path class="cls-4" d="M525.6,81.84c-118.79-3.26-192.49-37.92-216.74-51.33-5.5-3.04-12.21-3.04-17.71,0-24.26,13.41-97.95,48.07-216.74,51.33-10.07.27-18.06,8.73-18.06,18.92v130.86c0,129.62,70.4,248.76,183.3,310.21l50.26,27.36c6.3,3.44,13.88,3.44,20.18,0l50.26-27.36c112.9-61.45,183.3-180.59,183.3-310.21V100.76c0-10.18-7.98-18.64-18.06-18.92ZM519.56,227.21c0,123.62-66.81,236.76-174.36,295.3l-35.66,19.41c-2.97,1.6-6.26,2.42-9.54,2.42s-6.57-.82-9.54-2.42l-35.66-19.41c-107.55-58.55-174.36-171.68-174.36-295.3v-111.04c0-5.26,4.16-9.55,9.39-9.92,101.19-6.89,170.67-33.7,205.82-50.87,1.41-.7,2.87-1.04,4.35-1.04s2.94.34,4.35,1.04c35.15,17.17,104.65,43.98,205.82,50.87,5.23.37,9.39,4.67,9.39,9.92v111.04Z"/>
      <g>
        <path class="cls-4" d="M383.49,255.41h-166.99c-9.94,0-18.01,8.07-18.01,18.01v133.15c0,9.94,8.07,18.01,18.01,18.01h166.99c9.94,0,18.01-8.07,18.01-18.01v-133.15c0-9.94-8.07-18.01-18.01-18.01ZM316.11,348.44v13.31c0,8.89-7.22,16.11-16.11,16.11s-16.11-7.22-16.11-16.11v-13.31c-6.85-4.96-11.28-13.03-11.28-22.14,0-15.13,12.26-27.39,27.39-27.39s27.39,12.26,27.39,27.39c0,9.1-4.43,17.18-11.28,22.14Z"/>
        <path class="cls-4" d="M359.62,205.53v20.88c0,7.12-5.77,12.89-12.89,12.89h0c-7.12,0-12.89-5.77-12.89-12.89v-20.05c0-18.32-14.22-33.95-32.53-34.64-19.25-.73-35.14,14.72-35.14,33.81v36.99h-25.78v-36.02c0-32.49,25.6-59.75,58.08-60.57,17.08-.43,32.56,6.32,43.69,17.45,10.8,10.8,17.47,25.68,17.47,42.15Z"/>
      </g>
      <path class="cls-1" d="M300,544.35c-3.29,0-6.57-.82-9.54-2.43l-35.66-19.4c-107.55-58.55-174.37-171.69-174.37-295.31v-111.05c0-5.25,4.16-9.55,9.39-9.93,101.19-6.88,170.66-33.69,205.82-50.87,1.4-.69,2.87-1.03,4.35-1.03"/>
      <path class="cls-2" d="M519.56,116.16v111.05c0,123.61-66.82,236.75-174.37,295.31l-35.66,19.4c-2.96,1.61-6.25,2.43-9.54,2.43V54.34c1.48,0,2.95.34,4.35,1.03,35.16,17.18,104.65,43.99,205.82,50.87,5.24.37,9.39,4.67,9.39,9.93Z"/>
    </g>
  </g>
</svg>